# xmcd
#
# Track frame offsets:
#	160
#	15950
#	31825
#	44375
#	60722
#	75262
#	87747
#	102372
#	120267
#	142747
#	159010
#	169972
#
# Disc length: 2490 seconds
#
# Revision: 2
# Processed by: cddbd v1.5.2PL0 Copyright (c) Steve Scherf et al.
# Submitted via: EasyCDDAExtractor 16.0.9.1
#
DISCID=8009b80c
DTITLE=Андрей Державин - Сам по себе
DYEAR=1996
DGENRE=Pop
TTITLE0=Сам по себе
TTITLE1=Наташа
TTITLE2=Веселые качели 
TTITLE3=Не пиши мне...
TTITLE4=Последний поезд на юг 
TTITLE5=Как это было давно 
TTITLE6=Песня о первой и чистой любви 
TTITLE7=Ветер уносит 
TTITLE8=Журавли 
TTITLE9=Прощай! 
TTITLE10=Так далеко... (бонус) 
TTITLE11=Я хочу дождя (бонус)
EXTD=
EXTT0=
EXTT1=
EXTT2=
EXTT3=
EXTT4=
EXTT5=
EXTT6=
EXTT7=
EXTT8=
EXTT9=
EXTT10=
EXTT11=
PLAYORDER=
